<svg xmlns="http://www.w3.org/2000/svg" xmlns:xlink="http://www.w3.org/1999/xlink" viewBox="0 0 95 95"><defs><style>.cls-1{fill:none;}.cls-2{isolation:isolate;}.cls-3{fill:#fff;}.cls-4{fill:url(#linear-gradient);}.cls-5{fill:url(#linear-gradient-2);}.cls-6{fill:url(#linear-gradient-3);}.cls-7{fill:url(#linear-gradient-4);}.cls-8{fill:url(#linear-gradient-5);}.cls-9{fill:url(#linear-gradient-6);}.cls-10{fill:url(#linear-gradient-7);}.cls-11{fill:url(#linear-gradient-8);}.cls-12{fill:url(#linear-gradient-9);}.cls-13{fill:url(#linear-gradient-10);}.cls-14{clip-path:url(#clip-path);}.cls-15{fill:url(#linear-gradient-11);}.cls-16{opacity:0.14;mix-blend-mode:screen;fill:url(#linear-gradient-12);}.cls-17{fill:url(#linear-gradient-13);}.cls-18{fill:url(#linear-gradient-14);}.cls-19{fill:url(#linear-gradient-15);}.cls-20{fill:#f9f5f2;}.cls-21{fill:#edf5f9;}.cls-22{opacity:0.2;mix-blend-mode:multiply;fill:url(#linear-gradient-16);}</style><linearGradient id="linear-gradient" x1="14.18" y1="29.06" x2="14.18" y2="54.73" gradientUnits="userSpaceOnUse"><stop offset="0" stop-color="#fbee41"/><stop offset="0.06" stop-color="#fbe334"/><stop offset="0.18" stop-color="#fcd321"/><stop offset="0.29" stop-color="#fcc916"/><stop offset="0.42" stop-color="#fcc612"/><stop offset="1" stop-color="#e63f39"/></linearGradient><linearGradient id="linear-gradient-2" x1="38.94" y1="26.59" x2="38.94" y2="50.84" xlink:href="#linear-gradient"/><linearGradient id="linear-gradient-3" x1="61.54" y1="26.64" x2="61.54" y2="50.82" xlink:href="#linear-gradient"/><linearGradient id="linear-gradient-4" x1="82.92" y1="31.05" x2="82.92" y2="55.56" xlink:href="#linear-gradient"/><linearGradient id="linear-gradient-5" x1="23.25" y1="51.35" x2="23.25" y2="68.6" gradientUnits="userSpaceOnUse"><stop offset="0.18" stop-color="#36b24a"/><stop offset="0.88" stop-color="#016938"/><stop offset="0.91" stop-color="#009247"/></linearGradient><linearGradient id="linear-gradient-6" x1="54.68" y1="51.35" x2="54.68" y2="68.6" xlink:href="#linear-gradient-5"/><linearGradient id="linear-gradient-7" x1="23.46" y1="46.35" x2="23.02" y2="66.48" gradientUnits="userSpaceOnUse"><stop offset="0.18" stop-color="#d5dd26"/><stop offset="0.91" stop-color="#36b24a"/></linearGradient><linearGradient id="linear-gradient-8" x1="36.68" y1="46.64" x2="36.23" y2="66.77" xlink:href="#linear-gradient-7"/><linearGradient id="linear-gradient-9" x1="50.85" y1="46.95" x2="50.41" y2="67.08" xlink:href="#linear-gradient-7"/><linearGradient id="linear-gradient-10" x1="68.79" y1="47.34" x2="68.35" y2="67.47" xlink:href="#linear-gradient-7"/><clipPath id="clip-path"><rect class="cls-1" x="-765.36" y="-1318.28" width="1920" height="1080"/></clipPath><linearGradient id="linear-gradient-11" x1="180.19" y1="-418.24" x2="180.19" y2="-1342.91" gradientUnits="userSpaceOnUse"><stop offset="0" stop-color="#a7e9f9"/><stop offset="1" stop-color="#56b0ef"/></linearGradient><linearGradient id="linear-gradient-12" x1="196.23" y1="-2183.91" x2="196.23" y2="383.44" gradientUnits="userSpaceOnUse"><stop offset="0" stop-color="#fff"/><stop offset="1"/></linearGradient><linearGradient id="linear-gradient-13" x1="179.48" y1="9.88" x2="179.48" y2="-145.2" gradientUnits="userSpaceOnUse"><stop offset="0" stop-color="#7d9b12"/><stop offset="1" stop-color="#9fc637"/></linearGradient><linearGradient id="linear-gradient-14" x1="179.48" y1="-96.36" x2="179.48" y2="182.17" gradientUnits="userSpaceOnUse"><stop offset="0" stop-color="#7d9b12"/><stop offset="1" stop-color="#4b8c12"/></linearGradient><linearGradient id="linear-gradient-15" x1="179.48" y1="144.86" x2="179.48" y2="572.38" gradientUnits="userSpaceOnUse"><stop offset="0" stop-color="#81a817"/><stop offset="1" stop-color="#4b8c12"/></linearGradient><linearGradient id="linear-gradient-16" x1="-7.51" y1="-17.97" x2="-7.51" y2="6.32" gradientUnits="userSpaceOnUse"><stop offset="0" stop-color="#004f00"/><stop offset="1" stop-color="#fff"/></linearGradient></defs><title>BANNER VERO0001</title><g class="cls-2"><g id="Layer_1" data-name="Layer 1"><path class="cls-3" d="M26.73,31.94c-2.05-1.8-5-1.71-7.54-1.14-1.89.43-3.9,1-4.62,3a7.89,7.89,0,0,0-.28,3.69c-1.4-2-3.5-3.69-6-3.53-3.17.23-6.2,1.52-7.5,4.6a8.75,8.75,0,0,0-.62,4.58.32.32,0,0,0,.23.23C3,44.2,5.13,46.7,6.89,48.6c1.61,1.73,3,3.66,5,5a8.3,8.3,0,0,0,11-1.37c2.89-3.14,4.41-7.77,5.2-11.89C28.59,37.52,29.12,34.06,26.73,31.94Z"/><path class="cls-3" d="M27.67,34.54s1.58-7.82,14.69-6.43c0,0,9.4,1.38,8.58,10.47,0,0-.12,2.71-1.76,3.78A5.13,5.13,0,0,1,49,48.67S43.44,54,32,49.3C32,49.3,24.1,45.84,27.67,34.54Z"/><path class="cls-3" d="M49.32,30.12s9.45-4.09,12.39.52c0,0,5.06-2.63,9.21.49A8.36,8.36,0,0,1,74,37.3,10.46,10.46,0,0,1,73.6,41c-.16.58-.85,2.94-1.5,3.13,0,0-8.59,3.74-9.7-1.91l-.46,5.14a3.93,3.93,0,0,1-3.39,3.45c-3.23.41-8.13,0-9-3.11Z"/><path class="cls-3" d="M73.3,36.27c3.28-4.09,9.13-4.73,13.64-3.35,5.64,1.72,8.63,7,7.83,13a11.73,11.73,0,0,1-9.45,9.67,12.84,12.84,0,0,1-13.44-6.72A11.26,11.26,0,0,1,73.3,36.27Z"/><path class="cls-3" d="M19.13,46.65h0v.05Z"/><path class="cls-3" d="M82.15,56.23a1.18,1.18,0,0,0,0-.2,1.94,1.94,0,0,0,0-.24,7.87,7.87,0,0,0-4.79-6.33,8.22,8.22,0,0,0-7,.85,6.19,6.19,0,0,0-5-1.5C64.1,47.69,61.66,48,60,48c-1.26,0-3-.27-4.07.55a6.21,6.21,0,0,0-.64-.47,5.68,5.68,0,0,0-4.24-.73,7.56,7.56,0,0,0-3.31,0,14.72,14.72,0,0,0-3.54.44,2.88,2.88,0,0,0-2.84-1.18c-1.45.09-3.34-.13-4.64.61a8.22,8.22,0,0,0-5.51,1.34c0-.46,0-.9,0-1.32,0-1.69.45-4.33-1.5-5.13a4.37,4.37,0,0,0-2.27,0q-1.5.16-3,.36c-1.92.26-3.85.54-5.77.85-1.52.25-2.75.78-2.89,2.5,0,.3,0,.61,0,.91-.11,3.43-.21,6.86-.32,10.3,0,1.41-.09,2.83-.13,4.25a4.28,4.28,0,0,0,0,1c.39,2,2.39,2,4,2.27s4.22,1.13,5.48-.42c.69-.85.6-2,.66-3.07s.11-1.77.17-2.66a12.87,12.87,0,0,0,1.52.05,9.16,9.16,0,0,0,2.94,6,8,8,0,0,0,6.56,2.06,7.71,7.71,0,0,0,3.55.26,19.85,19.85,0,0,0,3.06-.1,3.06,3.06,0,0,0,1.65.38c1.53,0,3.06-.1,4.59-.2s2.68-.8,2.79-2.42c0-.32,0-.64,0-.95V59.31a19.42,19.42,0,0,0,2.22-.52l.73-.15c0,1.21.07,2.41.11,3.61,0,1.51-.22,3.43,1.35,4.27,1.19.64,3.09.16,4.38.07a10.57,10.57,0,0,0,3.16-.38,10.56,10.56,0,0,0,3.63.08,17.13,17.13,0,0,0,4.58-.38,9.41,9.41,0,0,0,2.43,0l2.62-.11c1.66-.07,3.16-.12,3.79-2A18.37,18.37,0,0,0,82.15,56.23ZM63.52,51.32s0,0-.06,0Zm-13.61-.79h0C50.38,50.42,50.18,50.62,49.91,50.53Zm-.17-.09-.08-.08ZM19.62,61.31l-.81-.13-.2,0,.09-2.92c.09-3,.19-6.07.28-9.11,0-.79.12-1.62.11-2.42-.32.29-1.1-.15-.18-.05h.18c0-.15,0-.29,0-.44s0-.21,0-.29,0-.05,0-.07c.17.42.15.67.05.8A15.62,15.62,0,0,0,21,46.3l2.56-.38,2.55-.33,1.29-.15.42,0a4.54,4.54,0,0,1,0,.47c0,.83,0,1.66,0,2.5V49l-1.39,0-.46,0-1.88.07a1.68,1.68,0,0,0-1.65,1.65v0a1.66,1.66,0,0,0,1.65,1.65l2.59-.06c0,.49.09,1,.08,1.38s-.06.89-.07,1.35L24.12,55a1.68,1.68,0,0,0-1.65,1.65c-.07,1.18-.15,2.36-.22,3.54l-.06,1,0,.42h-.08C21.26,61.55,20.44,61.43,19.62,61.31Zm22,2.12-1.38,0-1.36,0-.74,0a1.63,1.63,0,0,0-1.32-.45l0,0a1.74,1.74,0,0,0-1.17-.48h-.21a1.24,1.24,0,0,0-.63.14,1.28,1.28,0,0,0-.54.34l0,.05A5.24,5.24,0,0,1,32.35,62a6.14,6.14,0,0,1-1.93-4.72,7,7,0,0,1,1.69-5.09,5.39,5.39,0,0,1,2.49-1.52l.09.1a1.76,1.76,0,0,0,1.17.48l.33,0a1.28,1.28,0,0,0,.64-.14,1.31,1.31,0,0,0,.53-.34,1.22,1.22,0,0,0,.15-.17,1.69,1.69,0,0,0,.83-.42,1.52,1.52,0,0,0,.31,0l.59,0,1.37-.08c.19,0,.43,0,.65,0,.06.45.15.91.16,1.06l.2,3,.57,8.38a1.74,1.74,0,0,0,.34.94h-.1Zm24.21-5.88c0-.26.09-.16,0,0Zm11.18,5-1.69.07-1.44.06c-.11,0-.3,0-.46,0a1.24,1.24,0,0,1,.24.23,1.38,1.38,0,0,0-.26-.23.21.21,0,0,0-.12,0,.16.16,0,0,1-.17,0l.2-.08.09.06h0l-.09-.07a1.87,1.87,0,0,0,1-1.5c.16-1.25.3-2.5.38-3.75v-.23a7,7,0,0,0-.09-.9c-.25-1.57-2.28-1.4-3-.4A4.56,4.56,0,0,0,71,58.66l0,2.44a1.67,1.67,0,0,0,.89,1.45,1.28,1.28,0,0,0-.38.21l-.21,0-.34,0-1.08.07c-.78,0-1.57.09-2.35.12l-1.19,0h-.25c.15-1.43.32-2.85.42-4.28a9.1,9.1,0,0,0-.12-2.9,1.68,1.68,0,0,0-2.43-1c-1.43.72-1.41,2.3-1.43,3.67s0,2.91-.05,4.36c0,.07,0,.17,0,.27a10.54,10.54,0,0,0-1.13.09l-2,.13-.56,0a18.17,18.17,0,0,0-.14-2l-.15-4.8A1.67,1.67,0,0,0,56.43,55c-.76.24-1.59.36-2.36.54l-1.19.27-.19,0a2.1,2.1,0,0,0-1.93-1.69,1.69,1.69,0,0,0-1.6,1.21A9.54,9.54,0,0,0,49,57.8v5.28a4.75,4.75,0,0,1,0,.5H48.9l-.85,0-1.88.09-1,0h-.06l-.1-.12a1.59,1.59,0,0,0,.51-1.18l.24-7.8c0-1.24.07-2.48.11-3.72l.28,0,2.43-.25a11.21,11.21,0,0,0,1.3-.12,1.75,1.75,0,0,0,1,.33A1.66,1.66,0,0,0,52,51.3h.43a1.28,1.28,0,0,0,.64-.14,1.43,1.43,0,0,0,.43-.25,4.61,4.61,0,0,1,1.69,2.49c.56,1.7,3.31,1.5,3.25-.44,0-.41,0-.83,0-1.24v-.36h.35l1.31,0,2.18,0h.52a1.65,1.65,0,0,0,2,1l.2-.07,0,.05a1.66,1.66,0,0,0,1.17.49h.33a1.28,1.28,0,0,0,.64-.14,1.3,1.3,0,0,0,.46-.28,2.37,2.37,0,0,1,.92,1,1.66,1.66,0,0,0,2.26.59,9,9,0,0,1,2.77-1.46l.09.09a1.69,1.69,0,0,0,1.16.48h.41a1.28,1.28,0,0,0,.64-.14,1.26,1.26,0,0,0,.5-.32,4.8,4.8,0,0,1,2.56,3.85A15.94,15.94,0,0,1,78.4,62c0,.16-.08.32-.13.48C77.85,62.49,77.43,62.53,77,62.54Z"/><path class="cls-3" d="M34.25,54.5a4.74,4.74,0,0,0-.36,4.6,2.4,2.4,0,0,0,4.26.37h0a4.83,4.83,0,0,0,.21-4.55A2.39,2.39,0,0,0,34.25,54.5Zm2.58,2.17a1.71,1.71,0,0,1,.09-.3l0,.11C37,56.56,37,56.62,36.83,56.67Zm-1.38-.14,0,.08v.08C35.4,56.65,35.38,56.6,35.45,56.53Z"/><path class="cls-4" d="M26.49,38.83a27.31,27.31,0,0,1-1.64,5.42c-.87,2.19-1.65,4-2.37,5.55-.44.91-.65,1.36-1.06,2.27a10.62,10.62,0,0,1-2.46,1,8,8,0,0,1-4.24,0,6.52,6.52,0,0,1-3.45-2.4c-5.55-6-9-8.81-9.43-8.89-.35-.93,0-2,1-3.24a7.39,7.39,0,0,1,3.45-2.5,5.2,5.2,0,0,1,5.34,1.38c1.63,1.48,3.34,4.18,5,8.08l.22-.06c-.14-4.82-1-9.59-.56-11.33.18-.69,1.74-1.51,3.28-1.87a9,9,0,0,1,2.81-.11,4.3,4.3,0,0,1,4.21,3.78A9.61,9.61,0,0,1,26.49,38.83Z"/><path class="cls-5" d="M48.22,41.6a104.1,104.1,0,0,0-12.1.61c0,.17.3.53.85,1a4,4,0,0,0,3,.61c2.57-.18,4.33-.54,5.31-1.21l.48-.33a9.7,9.7,0,0,1,1.67.42,2,2,0,0,1,1.53,1.85c0,.26,0,.58,0,1a3.37,3.37,0,0,1-.27,1.28,4.71,4.71,0,0,1-1.44,1.45c-.78.6-2.83.9-6.14,1.11a17.63,17.63,0,0,1-5.34-.36,11.42,11.42,0,0,1-4.48-2.35,9.12,9.12,0,0,1-2.84-5.78,12,12,0,0,1,0-3.08,7.67,7.67,0,0,1,.85-2.93,15.49,15.49,0,0,1,2.38-3c1.17-1.2,3.61-2,7.28-2.29,3.51-.24,6.14.39,7.83,1.78a8.24,8.24,0,0,1,2,2.47,7.86,7.86,0,0,1,.84,3.89C49.54,39.94,49.08,41.21,48.22,41.6Zm-5.85-3.67v-.25a2.42,2.42,0,0,0-.89-1.84,3.35,3.35,0,0,0-2.37-.6c-2,.15-3,1.21-2.88,3.12C38.67,38.13,39.91,38,42.37,37.93Z"/><path class="cls-6" d="M60.28,31.64a5.44,5.44,0,0,1,.83,1.65c0-.12.24-.39.68-.74a9.32,9.32,0,0,1,1.73-1A6.33,6.33,0,0,1,67,31.29c4.37.62,6.08,3.38,5.21,8-.26,1.09-.39,1.63-.64,2.73a5.09,5.09,0,0,1-2.07.92,6.73,6.73,0,0,1-2.69.17c-2.63-.4-3.91-1.82-3.85-4.4,0-.48-.53-.8-1.74-.92-.44,4.26-.66,6.39-1.09,10.66a2.79,2.79,0,0,1-.37.33,4.08,4.08,0,0,1-1.44.46,11,11,0,0,1-2.83.14c-1.82-.11-3.08-.62-3.8-1.56a6.71,6.71,0,0,1-1-4.25c0-1.54.11-4,.25-7.41.12-3.06.19-4.59.24-4.59a8.47,8.47,0,0,1,5.62-1.22C58.64,30.44,59.8,30.91,60.28,31.64Z"/><path class="cls-7" d="M90.11,36.93a12.18,12.18,0,0,1,2.37,2.94,7.68,7.68,0,0,1,.85,3.37,10.07,10.07,0,0,1-.71,4.09,11.38,11.38,0,0,1-2.11,3.58A8.78,8.78,0,0,1,87.88,53a12.9,12.9,0,0,1-3.32,1,8.6,8.6,0,0,1-4.06-.26,20.09,20.09,0,0,1-2-.7,12.71,12.71,0,0,1-2.29-1.36A9,9,0,0,1,74,49.51a8.83,8.83,0,0,1-1.29-3.42,12.86,12.86,0,0,1,.12-4.88,8.15,8.15,0,0,1,4.49-6.12,12,12,0,0,1,8.76-.42A9.7,9.7,0,0,1,90.11,36.93Zm-8,10.49a3.08,3.08,0,0,0,2.1-.21,3.13,3.13,0,0,0,1.7-2.11,3,3,0,0,0-.25-2.71,3.57,3.57,0,0,0-2-1.41,3.12,3.12,0,0,0-2.37.24,2.9,2.9,0,0,0-1.49,2C79.2,45.46,80,46.83,82.07,47.42Z"/><path class="cls-3" d="M19.72,35.22a2,2,0,0,0,1.4.79,4.62,4.62,0,0,1,1.53.56,1.75,1.75,0,0,1,.84,1.33,8.81,8.81,0,0,0,0,.89c.05.3.33.59.61.49a.7.7,0,0,0,.28-.23A4,4,0,0,0,25.2,36a3.16,3.16,0,0,0-2-2.42C22.26,33.23,18.73,33.19,19.72,35.22Z"/><path class="cls-3" d="M45.72,34.86A4.45,4.45,0,0,1,47,36.3a8.94,8.94,0,0,1,.39,2c.05.24.2.55.45.51a.4.4,0,0,0,.26-.16,2.36,2.36,0,0,0,.5-1.64,6.64,6.64,0,0,0-.83-3.23c-.48-.88-1.91-2.59-3.1-1.94C43.28,32.62,45.07,34.32,45.72,34.86Z"/><path class="cls-3" d="M67.37,34.45c.32.58,1,.84,1.44,1.35a2.91,2.91,0,0,1,.54,1.7,2.51,2.51,0,0,0,.13.91.73.73,0,0,0,.72.47.89.89,0,0,0,.41-.23,2.93,2.93,0,0,0,.92-2.24,4.38,4.38,0,0,0-.79-2.34,3.68,3.68,0,0,0-1.43-1.34C68.12,32.17,66.55,33,67.37,34.45Z"/><path class="cls-3" d="M89.49,41.72c.19.92-.13,1.91.16,2.82.1.33.35.68.7.69a.92.92,0,0,0,.72-.43,3.84,3.84,0,0,0,.78-2.52,6.5,6.5,0,0,0-.67-2.59c-.4-.82-2.33-3.63-3.42-2C87.09,38.67,89.28,40.66,89.49,41.72Z"/><path class="cls-8" d="M28.83,50.58a.74.74,0,0,0,.73-.75l0-5.45a.73.73,0,0,0-.25-.55.82.82,0,0,0-.47-.19h-.1c-3.56.37-7.14.87-10.66,1.47a.75.75,0,0,0-.62.72l-.49,16a.74.74,0,0,0,.62.76c1.74.29,3.55.55,5.36.77H23a.71.71,0,0,0,.5-.17.73.73,0,0,0,.27-.53l.1-1.61.27-4.44,3.57.14h0a.75.75,0,0,0,.76-.74l.05-4.6a.73.73,0,0,0-.22-.54.71.71,0,0,0-.5-.21h0l-3.59.08v0C25.7,50.68,27.26,50.62,28.83,50.58Z"/><path class="cls-9" d="M80.49,56.23a6.64,6.64,0,0,0-2.18-4.3,5.33,5.33,0,0,0-3.1-1.26H75a6.44,6.44,0,0,0-1,.05,8.49,8.49,0,0,0-4.12,1.81,3.79,3.79,0,0,0-3.32-2.11h-.27a5.39,5.39,0,0,0-1.92.29l-.13.05v-.31a.76.76,0,0,0-.21-.54.78.78,0,0,0-.51-.23h0c-2,0-4.1,0-6.11.07a.72.72,0,0,0-.52.23.74.74,0,0,0-.21.54c0,.82,0,1.64.08,2.47C56,50.39,54.51,49,52.44,48.91h-.53a3.08,3.08,0,0,0-1.08.28.75.75,0,0,0-.6-.34h-.11c-1.66.16-3.42.33-5.23.53a.75.75,0,0,0-.67.71l-.37,12.36-.62-9L42.93,49a.76.76,0,0,0-.72-.7h-.07c-1.38.07-2.82.16-4.29.26a.75.75,0,0,0-.64.46A5.61,5.61,0,0,0,36,48.87h-.1A6.49,6.49,0,0,0,30.94,51a8.14,8.14,0,0,0-2.17,5.7,7.94,7.94,0,0,0,1.83,5.86A6.71,6.71,0,0,0,35.36,65h.09A4,4,0,0,0,37,64.73a.75.75,0,0,0,.66.45h0c1.77,0,3.57-.07,5.52-.16a.73.73,0,0,0,.52-.24h0a.73.73,0,0,0,.21.43.77.77,0,0,0,.5.22h0c1.73-.06,3.55-.14,5.42-.24a.75.75,0,0,0,.71-.74V56.85c0-.17,0-.32,0-.47a2,2,0,0,1,.08-.59h.1a2.37,2.37,0,0,1,.3,1.2.74.74,0,0,0,.31.54.68.68,0,0,0,.41.14.4.4,0,0,0,.19,0l4.68-1,.12,0,.24,7.85a.69.69,0,0,0,.24.52.77.77,0,0,0,.48.2h.07l5.52-.38a.73.73,0,0,0,.69-.73l.08-6.7a1.25,1.25,0,0,1,.29-.81.61.61,0,0,1,.31-.23,5.45,5.45,0,0,1,.11,1.56c0,.26,0,.56-.06.88v0c0,1.06-.15,2.15-.29,3.24-.18,1.41-.2,1.8-.21,2a.77.77,0,0,0,.22.54.7.7,0,0,0,.5.22h0c1.1,0,2.17-.06,3.18-.11,1.38-.07,2.61-.14,3.65-.23a.76.76,0,0,0,.55-.32l.06.06a.76.76,0,0,0,.51.23h0l3-.13,2.9-.11a.75.75,0,0,0,.68-.53,20.27,20.27,0,0,0,.92-5.45A10.86,10.86,0,0,0,80.49,56.23ZM36,49.61l.24,0-.33,0Zm-.47,14.62h-.07a1.47,1.47,0,0,0,.21,0Zm1.25-5.6a.71.71,0,0,1-.62.34h0a.79.79,0,0,1-.64-.42,3.45,3.45,0,0,1,.09-3c.27-.34.49-.38.65-.37s.38,0,.62.41a2.67,2.67,0,0,1,.32,1.56A2.64,2.64,0,0,1,36.73,58.63Zm15.24-9h0Zm14.15,1.49h0ZM73,57.35c0,.63-.17,1.87-.38,3.68v.07l0-3.67a1.17,1.17,0,0,1,.2-.62l0,0a.73.73,0,0,1,.1-.13,2.55,2.55,0,0,1,0,.55Zm1.72-5.94h0Z"/><path class="cls-10" d="M18.17,45.86q5.31-.91,10.61-1.47l0,5.45c-1.77,0-3.55.11-5.32.18,0,.51-.1,1-.14,1.53l4.42-.1c0,1.53,0,3.07-.05,4.6-1.43,0-2.86-.1-4.3-.17-.14,2.27-.27,4.53-.41,6.79-1.78-.22-3.56-.47-5.33-.77Q17.92,53.88,18.17,45.86Z"/><path class="cls-11" d="M37.84,50v-.08l.06-.62,4.28-.26q.52,7.62,1,15.23c-1.83.08-3.66.13-5.49.16,0-.33,0-.66-.08-1a2.73,2.73,0,0,1-2.24.77,6,6,0,0,1-4.26-2.13,7.18,7.18,0,0,1-1.63-5.34,7.35,7.35,0,0,1,1.95-5.2,5.71,5.71,0,0,1,4.39-1.94A5.34,5.34,0,0,1,37.84,50Zm-1.61,4.37A1.51,1.51,0,0,0,35,55,3.24,3.24,0,0,0,34.4,57a3.4,3.4,0,0,0,.45,2,1.53,1.53,0,0,0,1.21.74,1.44,1.44,0,0,0,1.25-.62,3.3,3.3,0,0,0,.58-2,3.36,3.36,0,0,0-.45-2A1.48,1.48,0,0,0,36.23,54.38Z"/><path class="cls-12" d="M49.93,56.85v7.59c-1.8.09-3.6.17-5.41.23L45,50.12c1.74-.19,3.49-.37,5.23-.53,0,.38,0,.77,0,1.15A2.4,2.4,0,0,1,52,49.65h.43c2.2.12,3.57,2,4.11,5.6,0,.2.06.41.08.62l-4.68,1.06c-.1-1.11-.38-1.73-.83-1.86l-.27,0a1.24,1.24,0,0,0-.33,0c-.34.09-.53.51-.55,1.28A4,4,0,0,0,49.93,56.85Z"/><path class="cls-13" d="M57.85,64.4q-.21-6.92-.42-13.93l6.09-.06c0,.59,0,1.17-.05,1.76a2.08,2.08,0,0,1,1.16-.78,4.67,4.67,0,0,1,1.82-.24h.07a3.06,3.06,0,0,1,3,2.65,8.29,8.29,0,0,1,4.58-2.35,5.39,5.39,0,0,1,1,0,4.6,4.6,0,0,1,2.67,1.09,5.84,5.84,0,0,1,1.92,3.83,11.58,11.58,0,0,1,.1,1.79A19.51,19.51,0,0,1,79,63.37l-5.88.24c0-.27.12-1.11.31-2.5.22-1.84.34-3.08.38-3.73a.76.76,0,0,1,0-.15,2,2,0,0,0-.23-1.17.51.51,0,0,0-.43-.25.65.65,0,0,0-.19,0,1.2,1.2,0,0,0-.66.56,2,2,0,0,0-.34,1q0,3.1-.05,6.22c-1,.08-2.2.16-3.63.22-1,.05-2,.09-3.16.12,0-.24.07-.87.2-1.9s.24-2.2.3-3.29c0-.33,0-.64,0-.92,0-1.55-.17-2.33-.66-2.35a1.33,1.33,0,0,0-1.07.51,2.09,2.09,0,0,0-.47,1.29c0,2.24,0,4.47-.07,6.7C61.53,64.16,59.69,64.29,57.85,64.4Z"/><path class="cls-3" d="M20.14,46.47l0,0c-.22-.33-.72,0-.84.26l0,.05a.38.38,0,0,0,.46.57C20,47.22,20.41,46.77,20.14,46.47Z"/><path class="cls-3" d="M33.76,51h0a.88.88,0,0,0-1.09.47.6.6,0,0,0-.06.49h0a.5.5,0,0,0,.67.26,1,1,0,0,0,.67-.66v0C34,51.37,34,51.07,33.76,51Z"/><path class="cls-3" d="M46.43,50.72c-.7,0-1.28,1.26-.34,1.29C46.8,52,47.37,50.75,46.43,50.72Z"/><path class="cls-3" d="M59.22,51.36c-.17-.12-.39,0-.56,0s-.54.61-.22.85a.57.57,0,0,0,.55,0C59.3,52.1,59.56,51.59,59.22,51.36Z"/><path class="cls-3" d="M65.28,52.1A.45.45,0,0,0,64.8,52h0a.72.72,0,0,0-.58.66.58.58,0,0,0,0,.19h0a.54.54,0,0,0,.05.11c.1.17.36.16.51.12a.82.82,0,0,0,.56-.57A.48.48,0,0,0,65.28,52.1Z"/><path class="cls-3" d="M73.22,52.57a0,0,0,0,0,0,0v0c-.06-.26-.38-.3-.59-.24a.88.88,0,0,0-.58.59v0a.37.37,0,0,0,0,.23.09.09,0,0,0,0,0h0a.33.33,0,0,0,.31.26h.13a.71.71,0,0,0,.31-.1h0l.2-.14h0l.08-.09h0l.06-.09h0a.62.62,0,0,0,.07-.19h0A.43.43,0,0,0,73.22,52.57Z"/><g class="cls-14"><rect class="cls-15" x="-806.42" y="-1420.93" width="1973.23" height="1973.23"/><path class="cls-16" d="M1182.84,351.92,232.24-1420.93h20.29L1182.84,79.53Zm-1423.2,36.72L184.08-1420.93H166.82L-379.52,388.64Zm501.75,0L204.53-1420.93h-16.6L131.07,388.64Zm511.1,0L226.16-1420.93H208.69L633.13,388.64ZM1182.84-583l-892.27-837.9H263.68l919.16,978.8Zm0-695.17-608.5-142.73H448.92l733.92,221.58Zm0,298.11L360.68-1420.93H316.27l866.57,537.29Zm-1138-440.84L-790.39-973.1v96L86.67-1420.93Zm-187.21,0-648,152v78.27l762.67-230.26Zm249.66,0L-790.39-578v140.46l923.51-983.42Zm34.73,0L-790.39,82.85v272L161.79-1420.93Z"/><path class="cls-17" d="M-151.9-141.27C-88-151.4,139-87.07,298.09-105.22c189.7-21.64,335.33-51.8,452.57-53.87,123.39-2.17,302.82,16.66,414.72,30.31V548.37l-1971.8.6V-68.62C-619.69-79.79-405-101.13-151.9-141.27Z"/><path class="cls-18" d="M-341.6-21c146.08,0,998.84-110.14,1424-110.14h83V280.24l-1971.8.47v-352C-655.11-43.4-498.41-21-341.6-21Z"/><path class="cls-19" d="M41.65,63.38c-114.22,5.06-336.9,30.24-453.28,30.41-103.06.15-238.21-2-394.79-12.08V552.3l1971.8-.13V102.82C743.11,93.89,333.17,50.45,41.65,63.38Z"/><path class="cls-20" d="M-15.14,119.86C-25.07,107.59-31.19,96-28.81,94s12.36,6.3,22.29,18.58,9,16.52,6.64,18.53S-5.21,132.14-15.14,119.86Z"/><path class="cls-21" d="M-5.28,114.83c-13.6-8-23.34-16.67-21.76-19.38S-13.16,97,.44,105,14.61,117.29,13,120,8.32,122.82-5.28,114.83Z"/><path class="cls-20" d="M-.84,104.43c-14.95-2.59-26.64-6.92-26.11-9.67s13.08-2.89,28-.3,16.88,6,16.35,8.76S14.11,107-.84,104.43Z"/><path class="cls-21" d="M-.16,93.84c-15.93,3-29.23,2.88-29.7-.18s12.07-7.94,28-10.9,19.1-.14,19.57,2.92S15.76,90.88-.16,93.84Z"/><path class="cls-21" d="M0,82.41C-13.7,91.22-26,96.18-27.46,93.5s6.52-10.76,20.2-19.56S9.12,67.29,10.6,70,13.64,73.61,0,82.41Z"/><path class="cls-20" d="M-8.14,75.62C-17.41,86.67-25.7,95.07-28,93.08s2.14-13.93,11.41-25S-1.57,57.62.73,59.6,1.12,64.58-8.14,75.62Z"/><path class="cls-22" d="M-59-13.94c-.22,0-.23,0,0,0C-52.33-12.44-44.46-9.59-39.23-5c.1.12.1.12,0,0-2-4.28-4.86-8.35-6-12.95,2.21,2.08,4.28,4.6,6.47,6.68,0,0-.42-.65-.06-.5A29.6,29.6,0,0,0-35.2-8.67c-2.35-6.91-2.2-14.5-4.17-21.54,3.89,7.12,8,15.38,11.45,22.21a20,20,0,0,1-1.23-5.29c.49.94,1.38,2.12,1.94,3.14,2-7.46.8-17.2,4.78-24.28,2.54,6.74,1,15.58,2.16,22.77.29-4.57.85-11.66,4.41-14.44-.08,4.11-.81,8.25-.33,12.39,3.2-8,8-14.4,14-20.44-.79,8-7.22,15.42-6.2,23.71,1.32-2.07,2.84-4.29,4-6.42-.24,1.44-.1,3.14-.41,4.67,1.07-1.58,3.44-3.12,5-4.59C0-15.57.29-13.09-.25-11.57,8.38-20.17,9.21-25,29.45-35,19-28.28,11.8-18.42,7.78-6.79,11.09-12.09,25-24,31.84-25.3c.11.12-12.1,9.59-14,19A37.33,37.33,0,0,1,50.29-17.13c-10.59.79-19.23,6.77-26.47,13.06,5.09-1,16.47-1.39,21.72-1.07-10.73,1-22,17.41-58,17.41C-37,12.27-49.27-1.56-65.3-4.86c6.79.5,15.09.94,21.66,3.46C-43.59-1.38-57.37-13.17-59-13.94Z"/></g></g></g></svg>